<svg version="1.1" id="Layer_1" xmlns="http://www.w3.org/2000/svg" xmlns:xlink="http://www.w3.org/1999/xlink" x="0px" y="0px"
	 width="100%" viewBox="0 0 399 301" enable-background="new 0 0 399 301" xml:space="preserve">
<path fill="#020202" opacity="1.000000" stroke="none" 
	d="
M400.000000,106.000000 
	C400.000000,153.687561 400.000000,201.375122 399.654358,249.565979 
	C397.577026,251.512329 395.826630,252.933594 394.117889,254.403320 
	C391.276489,256.847229 391.414429,258.942932 393.862488,260.206238 
	C396.492096,259.260986 398.246033,258.630493 400.000000,258.000000 
	C400.000000,272.594177 400.000000,287.188385 400.000000,302.000000 
	C385.313141,302.000000 370.625244,302.000000 355.526520,301.654907 
	C356.587769,298.780579 357.634766,295.815063 359.654205,293.847717 
	C361.586151,291.965607 364.529053,291.121277 367.817505,289.409698 
	C365.320068,287.938477 364.006226,287.164520 362.248474,286.129059 
	C360.473022,288.109985 358.754181,289.903931 357.176941,291.814728 
	C354.405579,295.172089 351.720947,298.601013 349.000000,302.000000 
	C276.312439,302.000000 203.624878,302.000000 130.469513,301.627106 
	C132.265182,297.778320 134.128098,293.929779 136.911682,290.937775 
	C139.390961,288.272888 142.889236,286.556000 145.013885,285.067841 
	C143.608719,283.371094 142.610001,282.165161 141.757446,281.135712 
	C140.925323,281.764893 139.455582,282.536133 138.446945,283.705231 
	C135.853989,286.710602 133.465485,289.892334 130.997635,293.001801 
	C131.000000,293.000000 131.003616,292.995300 130.630432,293.003357 
	C127.171486,296.007629 124.085739,299.003815 121.000000,302.000000 
	C81.121063,302.000000 41.242123,302.000000 1.000000,302.000000 
	C1.000000,293.982758 1.000000,285.960052 1.309316,277.321045 
	C5.946881,271.847168 10.275131,266.989624 14.065358,262.735870 
	C13.566669,262.153137 12.570731,260.989319 12.190652,260.545166 
	C8.646430,262.906219 4.823214,265.453094 0.999999,268.000000 
	C1.000000,194.979111 1.000000,121.958214 1.307543,48.310059 
	C4.566224,45.465057 7.517362,43.247311 9.507940,41.751415 
	C8.466720,40.678677 7.295380,39.471878 6.463538,38.614857 
	C5.165476,39.419121 3.082738,40.709560 1.000000,42.000000 
	C1.000000,28.406666 1.000000,14.813334 1.000000,1.000000 
	C14.353423,1.000000 27.708054,1.000000 41.496147,1.352772 
	C40.818901,4.362069 36.320972,7.078118 41.851425,9.679091 
	C44.125641,7.660578 44.606350,4.159051 48.143757,3.562774 
	C48.561302,3.492391 48.720852,1.891442 49.000000,1.000000 
	C122.020897,1.000000 195.041794,1.000000 268.475708,1.346410 
	C265.681732,5.043054 262.721100,8.684876 259.198120,11.661043 
	C255.716370,14.602360 257.194977,16.010134 259.436462,17.507475 
	C261.113373,16.171745 262.433380,15.324308 263.495026,14.226871 
	C265.091644,12.576388 266.507355,10.750903 268.000000,8.999911 
	C268.000000,9.000000 268.000000,9.000229 268.346191,8.966467 
	C271.461578,6.288468 274.230804,3.644233 277.000000,0.999999 
	C318.000031,1.000000 359.000092,1.000000 400.000000,1.000000 
	C400.000000,8.104813 400.000000,15.083624 399.720154,22.722849 
	C395.209106,27.259539 390.977875,31.135817 385.707367,35.964172 
	C387.187012,37.468582 388.216003,38.514782 389.214569,39.530056 
	C392.721008,35.597313 395.234711,32.777996 398.091583,29.573820 
	C398.085632,29.572496 399.042816,29.786249 400.000000,30.000002 
	C400.000000,54.354229 400.000000,78.708458 399.648621,103.527000 
	C398.110107,103.526047 396.922974,103.060776 395.604706,102.544106 
	C394.327789,103.755753 393.126892,105.175041 391.661804,106.226089 
	C388.791626,108.285164 385.774170,110.138931 382.533264,111.910149 
	C372.994659,100.032074 360.593018,95.059708 345.993164,94.995247 
	C328.672058,94.918777 311.350342,94.970329 294.028900,94.988060 
	C292.757507,94.989365 291.486328,95.165916 289.755127,95.295387 
	C289.755127,108.379189 289.755127,121.173943 289.429565,134.024002 
	C287.251282,135.703415 285.125610,137.117661 283.652679,139.033691 
	C282.825684,140.109512 283.077911,142.014969 282.860046,143.440735 
	C286.020874,142.341705 287.911804,141.684219 289.884827,141.487274 
	C289.916168,164.623444 289.865479,187.299072 289.487793,210.010742 
	C287.768188,211.363312 286.375580,212.679810 284.639343,214.032837 
	C278.381378,220.920685 272.467041,227.772034 266.552704,234.623367 
	C266.085785,234.279007 265.618866,233.934631 265.151917,233.590256 
	C266.201294,234.563690 267.250671,235.537109 267.368164,235.646103 
	C277.060028,232.628235 278.773163,222.152466 286.780823,217.930023 
	C287.102173,217.760590 286.940063,216.674286 287.240845,215.928619 
	C288.253326,215.897385 289.028198,215.952698 289.882202,216.448456 
	C289.961365,218.799988 289.961365,220.711060 289.961365,222.609711 
	C301.245300,222.609711 311.812927,222.609711 322.860779,222.609711 
	C322.860779,211.777969 322.860779,201.217453 322.860779,190.184357 
	C331.279266,190.184357 339.222809,190.268356 347.164001,190.168457 
	C370.138184,189.879486 387.272217,175.267960 391.335938,152.582260 
	C393.421173,140.941269 391.721649,129.775848 387.335815,118.754654 
	C389.648102,112.290009 394.512573,108.836372 400.000000,106.000000 
M6.594077,192.302032 
	C7.678424,192.517242 9.624633,193.098465 9.712877,192.890686 
	C10.533020,190.959412 14.266714,190.057678 12.690995,187.069534 
	C18.222744,188.046661 19.522982,183.304230 21.924696,180.140610 
	C22.995787,178.729721 23.379816,176.627106 24.677748,175.597168 
	C26.800278,173.912842 29.415131,172.848938 31.822311,171.523331 
	C31.078728,171.782990 30.335142,172.042664 29.591558,172.302322 
	C29.070024,170.863571 28.548491,169.424805 28.057985,168.071640 
	C25.505817,170.425049 22.565228,172.853104 19.967548,175.604874 
	C16.828260,178.930359 13.979472,182.530060 10.300820,186.074921 
	C8.867454,188.050140 7.434086,190.025375 5.311634,192.001389 
	C4.345688,192.342819 3.379742,192.684265 1.826145,193.233429 
	C3.314264,194.625565 4.297311,195.545227 5.370415,196.549118 
	C5.695843,195.919495 5.937850,195.660187 5.950703,195.389984 
	C6.004376,194.261566 5.989207,193.129883 6.594077,192.302032 
M262.584808,87.262993 
	C266.601013,89.942497 267.441010,85.746262 269.830078,84.193588 
	C268.487030,83.000160 267.391205,82.026367 266.081848,80.862877 
	C264.370422,82.929688 262.685211,84.964836 260.312439,87.068771 
	C257.867126,89.630959 255.421783,92.193138 252.057938,94.937668 
	C231.129456,94.937668 210.200974,94.937668 189.281464,94.937668 
	C189.281464,104.994331 189.281464,114.410667 189.281464,124.244614 
	C199.633881,124.244614 209.727707,124.244614 220.290558,124.244614 
	C220.290558,157.242828 220.290558,189.822876 220.290558,222.582123 
	C231.314087,222.582123 241.853149,222.582123 252.852997,222.582123 
	C252.852997,189.683731 252.852997,157.110245 252.852997,124.062363 
	C263.382111,124.062363 273.457611,124.062363 283.645508,124.062363 
	C283.645508,114.176506 283.645508,104.771667 283.645508,94.791862 
	C275.604340,94.791862 267.812317,94.791862 260.025116,94.036652 
	C260.689270,91.693703 261.353424,89.350761 262.584808,87.262993 
M216.268112,283.001678 
	C213.557739,285.413239 210.753937,287.736847 208.276733,290.367950 
	C208.019623,290.641022 209.702621,292.740692 210.757339,294.427795 
	C212.423492,289.721191 219.441635,288.995331 217.593430,283.280548 
	C221.134460,285.165741 224.051804,282.981323 225.842926,277.768005 
	C227.263397,278.233063 228.703094,278.646881 230.101471,279.170929 
	C250.914230,286.970520 272.281891,292.333099 294.558960,293.415955 
	C309.173309,294.126373 323.529541,292.637177 336.778259,285.876953 
	C343.684570,282.352997 349.594574,277.459595 352.961823,270.050415 
	C351.499664,270.345245 350.434540,271.106903 349.473236,271.982513 
	C347.018188,274.218811 344.808563,276.778046 342.147339,278.725006 
	C331.158600,286.764435 318.518097,289.728241 305.155029,290.191498 
	C278.879211,291.102478 254.279129,283.769806 230.011002,274.162994 
	C231.340363,272.770142 232.669739,271.377289 234.821167,269.846069 
	C236.908829,270.272156 239.077209,270.466461 241.071381,271.160980 
	C257.119019,276.750031 273.420197,281.268097 290.431885,282.613861 
	C303.955322,283.683655 317.331390,283.305969 330.084473,277.729553 
	C346.084686,270.733246 355.755554,253.765320 352.191833,237.801376 
	C347.724640,256.806732 334.601990,264.174896 317.026794,265.035431 
	C318.179108,261.483459 319.217285,258.255920 323.479462,256.608307 
	C325.775970,255.720551 327.115753,252.357895 328.784424,250.242188 
	C328.301666,249.932999 327.087555,249.155426 325.301849,248.011765 
	C319.519775,254.068176 313.766602,260.094360 307.107025,266.348938 
	C291.821136,266.260101 277.088654,263.025940 262.617004,258.412933 
	C234.552063,249.466858 208.638229,236.041931 184.100555,219.949188 
	C173.736115,213.151810 163.933945,205.497131 154.031479,197.453354 
	C156.167557,196.556946 158.303635,195.660553 161.050293,195.009003 
	C167.685593,199.807098 174.320892,204.605194 181.557999,209.838486 
	C181.557999,170.857452 181.557999,133.125305 181.557999,95.251175 
	C170.411652,95.251175 159.519257,95.251175 148.059357,95.251175 
	C148.059357,110.733818 148.059357,125.943031 148.059357,140.885971 
	C134.746964,140.885971 122.006393,140.885971 108.850388,140.885971 
	C108.850388,125.441612 108.850388,110.367760 108.850388,95.299942 
	C97.525238,95.299942 86.630859,95.299942 74.689667,95.299942 
	C75.806931,98.644676 76.565285,101.434059 77.666527,104.080772 
	C79.054756,107.417229 80.722923,110.637215 81.625847,114.187447 
	C80.390503,115.535744 79.155151,116.884041 77.294426,117.912384 
	C74.210617,112.409187 70.865402,107.033936 68.096451,101.376633 
	C61.995472,88.911621 57.102680,76.050537 57.655273,61.814869 
	C58.354191,43.809811 70.864754,30.776367 88.898521,29.766890 
	C88.070183,30.960909 87.391975,32.302933 86.386757,33.322590 
	C82.619179,37.144291 78.786446,40.904545 74.896126,44.601543 
	C72.164185,47.197739 72.762161,49.056091 75.536507,50.527851 
	C82.451721,43.255939 92.206070,38.745472 95.935753,28.057535 
	C106.964516,29.008522 118.131012,29.175735 128.991531,31.084192 
	C147.848663,34.397850 165.402679,41.960388 183.221863,50.238243 
	C187.164780,52.192585 191.107712,54.146927 196.344650,56.742664 
	C195.538940,55.209042 195.512711,55.061970 195.430130,55.015858 
	C191.283432,52.700626 187.131927,50.394020 182.358170,47.775890 
	C179.573303,46.078712 176.961166,43.949730 173.975159,42.755413 
	C156.428925,35.737411 139.073105,28.073887 121.115349,22.300615 
	C102.190811,16.216534 82.502480,13.632378 62.534962,16.988960 
	C37.514297,21.194984 23.999044,37.956947 26.002491,63.217468 
	C26.663841,71.556122 29.291378,79.738838 30.476664,88.373291 
	C28.749500,89.575439 27.022337,90.777580 24.926214,91.302620 
	C22.788919,81.591293 19.581713,71.972832 18.729094,62.149994 
	C16.734228,39.167614 27.924284,21.760145 48.986446,13.392372 
	C53.544647,11.581447 58.460785,10.671468 64.414787,9.011107 
	C52.923630,8.654220 43.482018,11.222767 34.774117,16.545992 
	C23.524248,23.423147 16.440245,33.266949 13.874187,46.252205 
	C10.330006,64.187126 15.220926,87.360519 25.599619,107.693634 
	C37.605598,131.214813 53.268429,151.982224 71.283531,171.072983 
	C74.391342,174.366333 75.724167,177.550217 75.630020,182.062576 
	C75.349327,195.515060 75.529274,208.977158 75.529274,222.606476 
	C86.889053,222.606476 97.776817,222.606476 109.110535,222.606476 
	C109.110535,217.568207 109.110535,212.833160 109.110535,207.226944 
	C111.093903,208.686218 112.375595,209.608902 113.635979,210.559799 
	C124.267380,218.580551 134.696899,226.886383 145.564377,234.573135 
	C168.871353,251.058594 193.931763,264.442169 220.111023,276.374023 
	C219.656342,277.514526 219.252075,278.678650 218.732727,279.788910 
	C218.218613,280.887939 217.588364,281.932678 216.268112,283.001678 
M363.630585,212.330261 
	C364.636353,212.840744 366.242371,214.029938 366.553375,213.754852 
	C369.151550,211.457077 371.590912,208.960831 373.904419,206.369308 
	C374.835358,205.326508 375.048309,203.539917 376.084167,202.714111 
	C378.553253,200.745605 381.317749,199.147598 384.024780,197.359055 
	C382.224487,195.661469 381.090179,194.591873 380.071136,193.630997 
	C378.942413,194.551910 377.717590,195.314575 376.792419,196.346024 
	C372.149078,201.522644 367.584167,206.769577 362.255035,212.005142 
	C359.548401,214.442871 356.759064,216.802841 354.273407,219.448196 
	C354.044952,219.691330 355.754883,221.755875 356.469574,222.831497 
	C359.411438,220.182144 361.825073,218.008499 364.178650,215.888947 
	C363.827789,214.725479 363.418030,213.366821 363.630585,212.330261 
M119.541321,82.083817 
	C122.807884,79.385574 127.075638,77.261108 129.047287,73.820755 
	C130.862381,70.653580 132.441879,68.397491 135.819000,66.920258 
	C137.591873,66.144760 138.690750,63.828434 139.599869,62.778542 
	C138.732819,61.410908 138.028351,60.299721 136.896393,58.514248 
	C128.151627,67.698509 119.878288,76.387650 111.243095,85.456848 
	C111.775970,86.287926 112.598846,87.571274 113.485329,88.953819 
	C115.516357,86.435875 117.175034,84.379555 119.541321,82.083817 
M47.537468,223.952377 
	C44.989620,226.185211 42.441776,228.418045 39.662411,230.853775 
	C41.077618,232.361191 42.054653,233.401901 43.167999,234.587784 
	C51.952213,225.728363 60.522293,217.084885 68.934875,208.600266 
	C67.969299,207.557465 67.020889,206.533218 66.140495,205.582413 
	C63.423367,207.942627 60.536743,210.135696 58.032459,212.701889 
	C54.602673,216.216446 51.463253,220.014359 47.537468,223.952377 
M184.176987,16.915127 
	C187.659119,13.959945 191.141235,11.004761 194.865082,7.844434 
	C193.293686,6.924180 191.974716,6.151746 189.884079,4.927406 
	C182.024765,13.099909 174.175217,21.145023 166.541702,29.390137 
	C165.816818,30.173101 166.444977,32.208744 166.444977,33.993645 
	C170.202972,31.360998 173.150284,29.798796 175.445221,27.566057 
	C178.573608,24.522440 181.204529,20.967520 184.176987,16.915127 
M306.682495,47.271717 
	C309.204498,44.077927 311.703583,40.865574 314.263275,37.702267 
	C314.979279,36.817448 315.799072,35.979160 316.701385,35.289890 
	C319.003296,33.531494 321.378571,31.869198 323.903351,30.038754 
	C322.209656,28.490900 321.306885,27.665867 320.505981,26.933943 
	C316.914154,31.070936 310.433624,32.615952 310.348755,38.885807 
	C309.123016,39.188457 307.575775,39.111614 306.775452,39.847282 
	C303.252411,43.085758 299.950562,46.564388 296.557434,49.944824 
	C293.947571,52.544949 295.146790,54.231823 297.456848,55.509819 
	C300.511597,52.808575 303.350891,50.297859 306.682495,47.271717 
M86.547913,266.079865 
	C89.940025,262.855347 93.314659,259.612152 96.731209,256.413757 
	C98.592827,254.670990 100.583862,253.063995 102.408966,251.285385 
	C104.052208,249.684006 105.548714,247.932037 106.742737,246.642929 
	C105.828224,245.371094 105.066536,244.311798 103.699112,242.410065 
	C95.061386,251.719849 86.790466,260.634277 78.377632,269.701660 
	C79.343590,270.479675 80.431297,271.355743 81.194977,271.970825 
	C82.882805,269.916931 84.363327,268.115295 86.547913,266.079865 
M205.363724,148.659302 
	C205.871643,142.366135 213.056778,142.214554 215.506485,137.629532 
	C214.257477,136.886368 213.019745,136.149902 211.781998,135.413437 
	C211.194992,134.917175 210.607971,134.420929 210.020966,133.924667 
	C204.013290,140.785049 198.112534,147.743576 191.948639,154.460602 
	C189.245178,157.406662 189.738541,159.130264 192.882858,160.698364 
	C195.468628,157.684387 197.854904,154.902969 200.151779,152.225739 
	C201.702133,151.191879 203.255981,150.155716 205.363724,148.659302 
M220.159500,56.961761 
	C224.240433,53.177227 228.321381,49.392689 232.377747,45.630939 
	C227.243469,42.460747 226.392715,43.035091 211.687943,59.963440 
	C212.887146,60.879856 214.078445,61.790237 215.269745,62.700615 
	C216.699402,60.802937 218.129074,58.905258 220.159500,56.961761 
M77.875137,8.991064 
	C82.283966,8.991064 86.692795,8.991064 91.101624,8.991064 
	C91.097618,8.625841 91.093605,8.260617 91.089600,7.895394 
	C85.398758,7.895394 79.707909,7.895394 74.017067,7.895394 
	C74.018715,8.264616 74.020363,8.633837 74.022018,9.003058 
	C75.013268,9.003058 76.004524,9.003058 77.875137,8.991064 
M356.748871,264.272919 
	C356.652588,264.151245 356.578766,263.974670 356.453644,263.923462 
	C356.330383,263.873047 356.050293,263.903931 356.018311,263.977295 
	C355.458038,265.262329 354.925323,266.559448 354.386627,267.853912 
	C354.511169,267.910736 354.635712,267.967590 354.760284,268.024414 
	C355.347778,266.904633 355.935272,265.784851 356.748871,264.272919 
z"/>
<path fill="#101010" opacity="1.000000" stroke="none" 
	d="
M130.995270,293.003601 
	C133.465485,289.892334 135.853989,286.710602 138.446945,283.705231 
	C139.455582,282.536133 140.925323,281.764893 141.757446,281.135712 
	C142.610001,282.165161 143.608719,283.371094 145.013885,285.067841 
	C142.889236,286.556000 139.390961,288.272888 136.911682,290.937775 
	C134.128098,293.929779 132.265182,297.778320 130.000854,301.627106 
	C127.299988,302.000000 124.599968,302.000000 121.449982,302.000000 
	C124.085739,299.003815 127.171486,296.007629 130.681793,293.137756 
	C131.187180,293.313507 131.268021,293.362915 131.348862,293.412323 
	C131.230988,293.276093 131.113129,293.139862 130.995270,293.003601 
z"/>
<path fill="#111111" opacity="1.000000" stroke="none" 
	d="
M276.555847,0.999999 
	C274.230804,3.644233 271.461578,6.288468 268.292480,8.830610 
	C267.808258,8.680481 267.723877,8.632444 267.639526,8.584409 
	C267.759674,8.722878 267.879852,8.861348 268.000000,8.999821 
	C266.507355,10.750903 265.091644,12.576388 263.495026,14.226871 
	C262.433380,15.324308 261.113373,16.171745 259.436462,17.507475 
	C257.194977,16.010134 255.716370,14.602360 259.198120,11.661043 
	C262.721100,8.684876 265.681732,5.043054 268.944336,1.346410 
	C271.370575,1.000000 273.741119,1.000000 276.555847,0.999999 
z"/>
<path fill="#111111" opacity="1.000000" stroke="none" 
	d="
M349.428467,302.000000 
	C351.720947,298.601013 354.405579,295.172089 357.176941,291.814728 
	C358.754181,289.903931 360.473022,288.109985 362.248474,286.129059 
	C364.006226,287.164520 365.320068,287.938477 367.817505,289.409698 
	C364.529053,291.121277 361.586151,291.965607 359.654205,293.847717 
	C357.634766,295.815063 356.587769,298.780579 355.057861,301.654907 
	C353.285645,302.000000 351.571289,302.000000 349.428467,302.000000 
z"/>
<path fill="#151515" opacity="1.000000" stroke="none" 
	d="
M400.000000,105.666672 
	C394.512573,108.836372 389.648102,112.290009 387.086853,118.527115 
	C385.328125,116.378983 384.072906,114.228333 382.817657,112.077682 
	C385.774170,110.138931 388.791626,108.285164 391.661804,106.226089 
	C393.126892,105.175041 394.327789,103.755753 395.604706,102.544106 
	C396.922974,103.060776 398.110107,103.526047 399.648621,103.995659 
	C400.000000,104.444443 400.000000,104.888893 400.000000,105.666672 
z"/>
<path fill="#121212" opacity="1.000000" stroke="none" 
	d="
M0.999999,268.449982 
	C4.823214,265.453094 8.646430,262.906219 12.190652,260.545166 
	C12.570731,260.989319 13.566669,262.153137 14.065358,262.735870 
	C10.275131,266.989624 5.946881,271.847168 1.309316,276.852356 
	C1.000000,274.299988 1.000000,271.599976 0.999999,268.449982 
z"/>
<path fill="#111111" opacity="1.000000" stroke="none" 
	d="
M400.000000,29.562502 
	C399.042816,29.786249 398.085632,29.572496 398.091583,29.573820 
	C395.234711,32.777996 392.721008,35.597313 389.214569,39.530056 
	C388.216003,38.514782 387.187012,37.468582 385.707367,35.964172 
	C390.977875,31.135817 395.209106,27.259539 399.720154,23.191631 
	C400.000000,25.041666 400.000000,27.083334 400.000000,29.562502 
z"/>
<path fill="#121212" opacity="1.000000" stroke="none" 
	d="
M400.000000,257.555847 
	C398.246033,258.630493 396.492096,259.260986 393.862488,260.206238 
	C391.414429,258.942932 391.276489,256.847229 394.117889,254.403320 
	C395.826630,252.933594 397.577026,251.512329 399.654358,250.034637 
	C400.000000,252.370560 400.000000,254.741135 400.000000,257.555847 
z"/>
<path fill="#131313" opacity="1.000000" stroke="none" 
	d="
M48.562500,1.000000 
	C48.720852,1.891442 48.561302,3.492391 48.143757,3.562774 
	C44.606350,4.159051 44.125641,7.660578 41.851425,9.679091 
	C36.320972,7.078118 40.818901,4.362069 41.964806,1.352772 
	C44.041668,1.000000 46.083332,1.000000 48.562500,1.000000 
z"/>
<path fill="#111111" opacity="1.000000" stroke="none" 
	d="
M1.000000,42.428463 
	C3.082738,40.709560 5.165476,39.419121 6.463538,38.614857 
	C7.295380,39.471878 8.466720,40.678677 9.507940,41.751415 
	C7.517362,43.247311 4.566224,45.465057 1.307543,47.841400 
	C1.000000,46.285641 1.000000,44.571285 1.000000,42.428463 
z"/>
<path fill="#FAFAFA" opacity="1.000000" stroke="none" 
	d="
M317.018372,265.780273 
	C334.601990,264.174896 347.724640,256.806732 352.191833,237.801376 
	C355.755554,253.765320 346.084686,270.733246 330.084473,277.729553 
	C317.331390,283.305969 303.955322,283.683655 290.431885,282.613861 
	C273.420197,281.268097 257.119019,276.750031 241.071381,271.160980 
	C239.077209,270.466461 236.908829,270.272156 234.145203,269.756958 
	C231.596008,268.449524 229.823349,267.027618 227.833710,266.044983 
	C211.569656,258.012299 195.265137,250.061539 178.756760,241.822464 
	C156.103287,228.123108 134.716202,213.198746 115.004639,195.987503 
	C80.023674,165.443710 49.109623,131.693069 31.019901,87.992851 
	C29.291378,79.738838 26.663841,71.556122 26.002491,63.217468 
	C23.999044,37.956947 37.514297,21.194984 62.534962,16.988960 
	C82.502480,13.632378 102.190811,16.216534 121.115349,22.300615 
	C139.073105,28.073887 156.428925,35.737411 173.975159,42.755413 
	C176.961166,43.949730 179.573303,46.078712 182.623428,48.357101 
	C182.853851,49.221779 182.819000,49.505249 182.784164,49.788723 
	C165.402679,41.960388 147.848663,34.397850 128.991531,31.084192 
	C118.131012,29.175735 106.964516,29.008522 95.103958,28.084095 
	C92.512489,28.428623 90.752800,28.746595 88.993118,29.064568 
	C70.864754,30.776367 58.354191,43.809811 57.655273,61.814869 
	C57.102680,76.050537 61.995472,88.911621 68.096451,101.376633 
	C70.865402,107.033936 74.210617,112.409187 77.760086,118.381454 
	C78.797173,119.990944 79.171791,121.296585 79.969604,122.246964 
	C91.627663,136.134598 103.342224,149.974808 115.189789,164.132599 
	C126.843910,174.648117 138.351547,184.857315 150.008759,195.355820 
	C151.397629,196.507462 152.636917,197.369781 153.876205,198.232117 
	C163.933945,205.497131 173.736115,213.151810 184.100555,219.949188 
	C208.638229,236.041931 234.552063,249.466858 262.617004,258.412933 
	C277.088654,263.025940 291.821136,266.260101 307.996704,266.361084 
	C311.597015,266.175568 314.307709,265.977936 317.018372,265.780273 
z"/>
<path fill="#FDFDFD" opacity="1.000000" stroke="none" 
	d="
M382.533264,111.910149 
	C384.072906,114.228333 385.328125,116.378983 386.832306,118.757172 
	C391.721649,129.775848 393.421173,140.941269 391.335938,152.582260 
	C387.272217,175.267960 370.138184,189.879486 347.164001,190.168457 
	C339.222809,190.268356 331.279266,190.184357 322.860779,190.184357 
	C322.860779,201.217453 322.860779,211.777969 322.860779,222.609711 
	C311.812927,222.609711 301.245300,222.609711 289.961365,222.609711 
	C289.961365,220.711060 289.961365,218.799988 289.989227,216.027191 
	C289.949646,213.435226 289.882202,211.704956 289.814758,209.974686 
	C289.865479,187.299072 289.916168,164.623444 289.988464,141.054932 
	C289.925079,138.097580 289.840118,136.033127 289.755127,133.968689 
	C289.755127,121.173943 289.755127,108.379189 289.755127,95.295387 
	C291.486328,95.165916 292.757507,94.989365 294.028900,94.988060 
	C311.350342,94.970329 328.672058,94.918777 345.993164,94.995247 
	C360.593018,95.059708 372.994659,100.032074 382.533264,111.910149 
M322.828552,150.474731 
	C322.828552,153.875137 322.828552,157.275528 322.828552,160.824661 
	C329.439148,160.824661 335.240082,160.817215 341.040985,160.826172 
	C354.102020,160.846329 360.247162,154.660004 360.026917,141.701218 
	C359.869995,132.467743 355.230347,125.077782 348.021057,124.479752 
	C339.819214,123.799400 331.517548,124.322517 322.828522,124.322517 
	C322.828522,132.932388 322.828522,141.206375 322.828552,150.474731 
z"/>
<path fill="#FBFBFB" opacity="1.000000" stroke="none" 
	d="
M260.020264,94.791862 
	C267.812317,94.791862 275.604340,94.791862 283.645508,94.791862 
	C283.645508,104.771667 283.645508,114.176506 283.645508,124.062363 
	C273.457611,124.062363 263.382111,124.062363 252.852997,124.062363 
	C252.852997,157.110245 252.852997,189.683731 252.852997,222.582123 
	C241.853149,222.582123 231.314087,222.582123 220.290558,222.582123 
	C220.290558,189.822876 220.290558,157.242828 220.290558,124.244614 
	C209.727707,124.244614 199.633881,124.244614 189.281464,124.244614 
	C189.281464,114.410667 189.281464,104.994331 189.281464,94.937668 
	C210.200974,94.937668 231.129456,94.937668 252.949768,94.940735 
	C255.901138,94.893166 257.960693,94.842514 260.020264,94.791862 
z"/>
<path fill="#FAFAFA" opacity="1.000000" stroke="none" 
	d="
M82.270325,113.907448 
	C80.722923,110.637215 79.054756,107.417229 77.666527,104.080772 
	C76.565285,101.434059 75.806931,98.644676 74.689667,95.299942 
	C86.630859,95.299942 97.525238,95.299942 108.850388,95.299942 
	C108.850388,110.367760 108.850388,125.441612 108.850388,140.885971 
	C122.006393,140.885971 134.746964,140.885971 148.059357,140.885971 
	C148.059357,125.943031 148.059357,110.733818 148.059357,95.251175 
	C159.519257,95.251175 170.411652,95.251175 181.557999,95.251175 
	C181.557999,133.125305 181.557999,170.857452 181.557999,209.838486 
	C174.320892,204.605194 167.685593,199.807098 160.590240,194.586823 
	C158.483582,192.988647 156.836990,191.812653 155.003693,190.364807 
	C146.150543,186.474426 148.577118,178.511520 148.087921,170.864288 
	C135.876007,174.827393 128.203217,168.376938 121.240891,160.293259 
	C121.139656,160.175720 120.954285,160.130661 120.705452,159.739609 
	C107.825249,144.254120 95.047791,129.080780 82.270325,113.907448 
z"/>
<path fill="#F5F5F5" opacity="1.000000" stroke="none" 
	d="
M230.012024,274.830078 
	C254.279129,283.769806 278.879211,291.102478 305.155029,290.191498 
	C318.518097,289.728241 331.158600,286.764435 342.147339,278.725006 
	C344.808563,276.778046 347.018188,274.218811 349.473236,271.982513 
	C350.434540,271.106903 351.499664,270.345245 352.961823,270.050415 
	C349.594574,277.459595 343.684570,282.352997 336.778259,285.876953 
	C323.529541,292.637177 309.173309,294.126373 294.558960,293.415955 
	C272.281891,292.333099 250.914230,286.970520 230.101471,279.170929 
	C228.703094,278.646881 227.263397,278.233063 225.238739,277.471832 
	C223.150589,276.657013 221.666626,276.138336 220.182663,275.619690 
	C193.931763,264.442169 168.871353,251.058594 145.564377,234.573135 
	C134.696899,226.886383 124.267380,218.580551 113.635979,210.559799 
	C112.375595,209.608902 111.093903,208.686218 109.110535,207.226944 
	C109.110535,212.833160 109.110535,217.568207 109.110535,222.606476 
	C97.776817,222.606476 86.889053,222.606476 75.529274,222.606476 
	C75.529274,208.977158 75.349327,195.515060 75.630020,182.062576 
	C75.724167,177.550217 74.391342,174.366333 71.283531,171.072983 
	C53.268429,151.982224 37.605598,131.214813 25.599619,107.693634 
	C15.220926,87.360519 10.330006,64.187126 13.874187,46.252205 
	C16.440245,33.266949 23.524248,23.423147 34.774117,16.545992 
	C43.482018,11.222767 52.923630,8.654220 64.414787,9.011107 
	C58.460785,10.671468 53.544647,11.581447 48.986446,13.392372 
	C27.924284,21.760145 16.734228,39.167614 18.729094,62.149994 
	C19.581713,71.972832 22.788919,81.591293 25.159990,91.987839 
	C32.507313,105.778801 38.639839,119.543785 46.919968,131.865601 
	C70.910599,167.566467 101.732903,196.813004 136.344162,222.055176 
	C148.648041,231.028442 161.808289,238.827530 174.800995,247.435242 
	C184.649780,252.920334 194.144363,258.396362 203.943054,263.259674 
	C211.432388,266.976807 219.306488,269.918701 227.127777,273.395874 
	C227.463562,273.809082 227.726303,273.942780 228.300964,274.094849 
	C229.049042,274.411530 229.530533,274.620789 230.012024,274.830078 
z"/>
<path fill="#0E0E0E" opacity="1.000000" stroke="none" 
	d="
M174.577606,247.162613 
	C161.808289,238.827530 148.648041,231.028442 136.344162,222.055176 
	C101.732903,196.813004 70.910599,167.566467 46.919968,131.865601 
	C38.639839,119.543785 32.507313,105.778801 25.344471,92.326385 
	C27.022337,90.777580 28.749500,89.575439 30.748283,88.183075 
	C49.109623,131.693069 80.023674,165.443710 115.004639,195.987503 
	C134.716202,213.198746 156.103287,228.123108 178.755554,242.182770 
	C177.506210,244.258560 176.041916,245.710587 174.577606,247.162613 
z"/>
<path fill="#0F0F0F" opacity="1.000000" stroke="none" 
	d="
M174.800995,247.435242 
	C176.041916,245.710587 177.506210,244.258560 178.971710,242.446198 
	C195.265137,250.061539 211.569656,258.012299 227.833710,266.044983 
	C229.823349,267.027618 231.596008,268.449524 233.734161,269.826141 
	C232.669739,271.377289 231.340363,272.770142 230.011505,274.496521 
	C229.530533,274.620789 229.049042,274.411530 228.247955,273.830200 
	C227.622070,273.373932 227.315750,273.289673 227.009445,273.205414 
	C219.306488,269.918701 211.432388,266.976807 203.943054,263.259674 
	C194.144363,258.396362 184.649780,252.920334 174.800995,247.435242 
z"/>
<path fill="#0F0F0F" opacity="1.000000" stroke="none" 
	d="
M81.948090,114.047447 
	C95.047791,129.080780 107.825249,144.254120 120.353638,159.726715 
	C116.390526,158.593277 114.929626,160.161285 115.043320,163.826309 
	C103.342224,149.974808 91.627663,136.134598 79.969604,122.246964 
	C79.171791,121.296585 78.797173,119.990944 78.072769,118.541428 
	C79.155151,116.884041 80.390503,115.535744 81.948090,114.047447 
z"/>
<path fill="#111111" opacity="1.000000" stroke="none" 
	d="
M119.187515,82.203529 
	C117.175034,84.379555 115.516357,86.435875 113.485329,88.953819 
	C112.598846,87.571274 111.775970,86.287926 111.243095,85.456848 
	C119.878288,76.387650 128.151627,67.698509 136.896393,58.514248 
	C138.028351,60.299721 138.732819,61.410908 139.599869,62.778542 
	C138.690750,63.828434 137.591873,66.144760 135.819000,66.920258 
	C132.441879,68.397491 130.862381,70.653580 129.047287,73.820755 
	C127.075638,77.261108 122.807884,79.385574 119.187515,82.203529 
z"/>
<path fill="#111111" opacity="1.000000" stroke="none" 
	d="
M47.868431,223.821609 
	C51.463253,220.014359 54.602673,216.216446 58.032459,212.701889 
	C60.536743,210.135696 63.423367,207.942627 66.140495,205.582413 
	C67.020889,206.533218 67.969299,207.557465 68.934875,208.600266 
	C60.522293,217.084885 51.952213,225.728363 43.167999,234.587784 
	C42.054653,233.401901 41.077618,232.361191 39.662411,230.853775 
	C42.441776,228.418045 44.989620,226.185211 47.868431,223.821609 
z"/>
<path fill="#111111" opacity="1.000000" stroke="none" 
	d="
M184.112869,17.273476 
	C181.204529,20.967520 178.573608,24.522440 175.445221,27.566057 
	C173.150284,29.798796 170.202972,31.360998 166.444977,33.993645 
	C166.444977,32.208744 165.816818,30.173101 166.541702,29.390137 
	C174.175217,21.145023 182.024765,13.099909 189.884079,4.927406 
	C191.974716,6.151746 193.293686,6.924180 194.865082,7.844434 
	C191.141235,11.004761 187.659119,13.959945 184.112869,17.273476 
z"/>
<path fill="#111111" opacity="1.000000" stroke="none" 
	d="
M306.436340,47.529430 
	C303.350891,50.297859 300.511597,52.808575 297.456848,55.509819 
	C295.146790,54.231823 293.947571,52.544949 296.557434,49.944824 
	C299.950562,46.564388 303.252411,43.085758 306.775452,39.847282 
	C307.575775,39.111614 309.123016,39.188457 310.348755,38.885807 
	C310.433624,32.615952 316.914154,31.070936 320.505981,26.933943 
	C321.306885,27.665867 322.209656,28.490900 323.903351,30.038754 
	C321.378571,31.869198 319.003296,33.531494 316.701385,35.289890 
	C315.799072,35.979160 314.979279,36.817448 314.263275,37.702267 
	C311.703583,40.865574 309.204498,44.077927 306.436340,47.529430 
z"/>
<path fill="#121212" opacity="1.000000" stroke="none" 
	d="
M86.195877,266.196777 
	C84.363327,268.115295 82.882805,269.916931 81.194977,271.970825 
	C80.431297,271.355743 79.343590,270.479675 78.377632,269.701660 
	C86.790466,260.634277 95.061386,251.719849 103.699112,242.410065 
	C105.066536,244.311798 105.828224,245.371094 106.742737,246.642929 
	C105.548714,247.932037 104.052208,249.684006 102.408966,251.285385 
	C100.583862,253.063995 98.592827,254.670990 96.731209,256.413757 
	C93.314659,259.612152 89.940025,262.855347 86.195877,266.196777 
z"/>
<path fill="#121212" opacity="1.000000" stroke="none" 
	d="
M205.086777,148.889420 
	C203.255981,150.155716 201.702133,151.191879 200.151779,152.225739 
	C197.854904,154.902969 195.468628,157.684387 192.882858,160.698364 
	C189.738541,159.130264 189.245178,157.406662 191.948639,154.460602 
	C198.112534,147.743576 204.013290,140.785049 210.020966,133.924667 
	C210.607971,134.420929 211.194992,134.917175 211.781998,135.413437 
	C213.019745,136.149902 214.257477,136.886368 215.506485,137.629532 
	C213.056778,142.214554 205.871643,142.366135 205.086777,148.889420 
z"/>
<path fill="#151515" opacity="1.000000" stroke="none" 
	d="
M88.945816,29.415730 
	C90.752800,28.746595 92.512489,28.428623 94.650002,28.198921 
	C92.206070,38.745472 82.451721,43.255939 75.536507,50.527851 
	C72.762161,49.056091 72.164185,47.197739 74.896126,44.601543 
	C78.786446,40.904545 82.619179,37.144291 86.386757,33.322590 
	C87.391975,32.302933 88.070183,30.960909 88.945816,29.415730 
z"/>
<path fill="#111111" opacity="1.000000" stroke="none" 
	d="
M287.003204,216.015182 
	C286.940063,216.674286 287.102173,217.760590 286.780823,217.930023 
	C278.773163,222.152466 277.060028,232.628235 267.368164,235.646103 
	C267.250671,235.537109 266.201294,234.563690 265.151917,233.590256 
	C265.618866,233.934631 266.085785,234.279007 266.552704,234.623367 
	C272.467041,227.772034 278.381378,220.920685 284.908966,214.153473 
	C286.015869,214.830139 286.509552,215.422653 287.003204,216.015182 
z"/>
<path fill="#101010" opacity="1.000000" stroke="none" 
	d="
M362.991730,211.991821 
	C367.584167,206.769577 372.149078,201.522644 376.792419,196.346024 
	C377.717590,195.314575 378.942413,194.551910 380.071136,193.630997 
	C381.090179,194.591873 382.224487,195.661469 384.024780,197.359055 
	C381.317749,199.147598 378.553253,200.745605 376.084167,202.714111 
	C375.048309,203.539917 374.835358,205.326508 373.904419,206.369308 
	C371.590912,208.960831 369.151550,211.457077 366.553375,213.754852 
	C366.242371,214.029938 364.636353,212.840744 363.315308,212.165131 
	C363.000000,212.000000 362.991730,211.991821 362.991730,211.991821 
z"/>
<path fill="#111111" opacity="1.000000" stroke="none" 
	d="
M11.004955,186.011093 
	C13.979472,182.530060 16.828260,178.930359 19.967548,175.604874 
	C22.565228,172.853104 25.505817,170.425049 28.057985,168.071640 
	C28.548491,169.424805 29.070024,170.863571 29.591558,172.302322 
	C30.335142,172.042664 31.078728,171.782990 31.822311,171.523331 
	C29.415131,172.848938 26.800278,173.912842 24.677748,175.597168 
	C23.379816,176.627106 22.995787,178.729721 21.924696,180.140610 
	C19.522982,183.304230 18.222744,188.046661 12.126715,186.924774 
	C11.294319,186.583374 11.108493,186.327072 11.004955,186.011093 
z"/>
<path fill="#131313" opacity="1.000000" stroke="none" 
	d="
M317.022583,265.407837 
	C314.307709,265.977936 311.597015,266.175568 308.449890,266.246887 
	C313.766602,260.094360 319.519775,254.068176 325.301849,248.011765 
	C327.087555,249.155426 328.301666,249.932999 328.784424,250.242188 
	C327.115753,252.357895 325.775970,255.720551 323.479462,256.608307 
	C319.217285,258.255920 318.179108,261.483459 317.022583,265.407837 
z"/>
<path fill="#111111" opacity="1.000000" stroke="none" 
	d="
M219.859116,56.984673 
	C218.129074,58.905258 216.699402,60.802937 215.269745,62.700615 
	C214.078445,61.790237 212.887146,60.879856 211.687943,59.963440 
	C226.392715,43.035091 227.243469,42.460747 232.377747,45.630939 
	C228.321381,49.392689 224.240433,53.177227 219.859116,56.984673 
z"/>
<path fill="#101010" opacity="1.000000" stroke="none" 
	d="
M363.004150,212.004074 
	C363.418030,213.366821 363.827789,214.725479 364.178650,215.888947 
	C361.825073,218.008499 359.411438,220.182144 356.469574,222.831497 
	C355.754883,221.755875 354.044952,219.691330 354.273407,219.448196 
	C356.759064,216.802841 359.548401,214.442871 362.623383,211.998474 
	C362.991730,211.991821 363.000000,212.000000 363.004150,212.004074 
z"/>
<path fill="#121212" opacity="1.000000" stroke="none" 
	d="
M216.999390,282.990631 
	C219.441635,288.995331 212.423492,289.721191 210.757339,294.427795 
	C209.702621,292.740692 208.019623,290.641022 208.276733,290.367950 
	C210.753937,287.736847 213.557739,285.413239 216.633835,283.000977 
	C216.999557,283.000275 216.999390,282.990631 216.999390,282.990631 
z"/>
<path fill="#1C1C1C" opacity="1.000000" stroke="none" 
	d="
M220.146851,275.996826 
	C221.666626,276.138336 223.150589,276.657013 224.851532,277.429504 
	C224.051804,282.981323 221.134460,285.165741 217.296417,283.135590 
	C216.999390,282.990631 216.999557,283.000275 217.004303,283.000732 
	C217.588364,281.932678 218.218613,280.887939 218.732727,279.788910 
	C219.252075,278.678650 219.656342,277.514526 220.146851,275.996826 
z"/>
<path fill="#1C1C1C" opacity="1.000000" stroke="none" 
	d="
M289.429565,134.024002 
	C289.840118,136.033127 289.925079,138.097580 289.906403,140.594376 
	C287.911804,141.684219 286.020874,142.341705 282.860046,143.440735 
	C283.077911,142.014969 282.825684,140.109512 283.652679,139.033691 
	C285.125610,137.117661 287.251282,135.703415 289.429565,134.024002 
z"/>
<path fill="#151515" opacity="1.000000" stroke="none" 
	d="
M260.022705,94.414261 
	C257.960693,94.842514 255.901138,94.893166 253.409027,94.849564 
	C255.421783,92.193138 257.867126,89.630959 260.910614,87.035843 
	C261.678375,87.004547 261.847992,87.006180 262.017609,87.007820 
	C261.353424,89.350761 260.689270,91.693703 260.022705,94.414261 
z"/>
<path fill="#D7D7D7" opacity="1.000000" stroke="none" 
	d="
M183.003021,50.013481 
	C182.819000,49.505249 182.853851,49.221779 182.934814,48.512394 
	C187.131927,50.394020 191.283432,52.700626 195.430130,55.015858 
	C195.512711,55.061970 195.538940,55.209042 196.344650,56.742664 
	C191.107712,54.146927 187.164780,52.192585 183.003021,50.013481 
z"/>
<path fill="#131313" opacity="1.000000" stroke="none" 
	d="
M262.301208,87.135406 
	C261.847992,87.006180 261.678375,87.004547 261.254395,87.001450 
	C262.685211,84.964836 264.370422,82.929688 266.081848,80.862877 
	C267.391205,82.026367 268.487030,83.000160 269.830078,84.193588 
	C267.441010,85.746262 266.601013,89.942497 262.301208,87.135406 
z"/>
<path fill="#131313" opacity="1.000000" stroke="none" 
	d="
M10.652887,186.042999 
	C11.108493,186.327072 11.294319,186.583374 11.777250,186.888214 
	C14.266714,190.057678 10.533020,190.959412 9.712877,192.890686 
	C9.624633,193.098465 7.678424,192.517242 6.297039,192.151016 
	C6.000000,192.000000 6.000725,192.000610 6.000722,192.000610 
	C7.434086,190.025375 8.867454,188.050140 10.652887,186.042999 
z"/>
<path fill="#272727" opacity="1.000000" stroke="none" 
	d="
M155.190399,190.636673 
	C156.836990,191.812653 158.483582,192.988647 160.284943,194.464386 
	C158.303635,195.660553 156.167557,196.556946 153.953842,197.842743 
	C152.636917,197.369781 151.397629,196.507462 150.391037,195.315887 
	C152.145966,193.536652 153.668182,192.086670 155.190399,190.636673 
z"/>
<path fill="#555555" opacity="1.000000" stroke="none" 
	d="
M77.435455,8.997061 
	C76.004524,9.003058 75.013268,9.003058 74.022018,9.003058 
	C74.020363,8.633837 74.018715,8.264616 74.017067,7.895394 
	C79.707909,7.895394 85.398758,7.895394 91.089600,7.895394 
	C91.093605,8.260617 91.097618,8.625841 91.101624,8.991064 
	C86.692795,8.991064 82.283966,8.991064 77.435455,8.997061 
z"/>
<path fill="#1C1C1C" opacity="1.000000" stroke="none" 
	d="
M287.240845,215.928619 
	C286.509552,215.422653 286.015869,214.830139 285.252594,214.116974 
	C286.375580,212.679810 287.768188,211.363312 289.487793,210.010742 
	C289.882202,211.704956 289.949646,213.435226 289.910095,215.586761 
	C289.028198,215.952698 288.253326,215.897385 287.240845,215.928619 
z"/>
<path fill="#E8E8E8" opacity="1.000000" stroke="none" 
	d="
M356.635803,264.468994 
	C355.935272,265.784851 355.347778,266.904633 354.760284,268.024414 
	C354.635712,267.967590 354.511169,267.910736 354.386627,267.853912 
	C354.925323,266.559448 355.458038,265.262329 356.018311,263.977295 
	C356.050293,263.903931 356.330383,263.873047 356.453644,263.923462 
	C356.578766,263.974670 356.652588,264.151245 356.635803,264.468994 
z"/>
<path fill="#131313" opacity="1.000000" stroke="none" 
	d="
M5.999638,191.999695 
	C5.989207,193.129883 6.004376,194.261566 5.950703,195.389984 
	C5.937850,195.660187 5.695843,195.919495 5.370415,196.549118 
	C4.297311,195.545227 3.314264,194.625565 1.826145,193.233429 
	C3.379742,192.684265 4.345688,192.342819 5.656179,192.001007 
	C6.000725,192.000610 6.000000,192.000000 5.999638,191.999695 
z"/>
<path fill="#020202" opacity="1.000000" stroke="none" 
	d="
M130.997635,293.001801 
	C131.113129,293.139862 131.230988,293.276093 131.348862,293.412323 
	C131.268021,293.362915 131.187180,293.313507 131.054993,293.129700 
	C131.003616,292.995300 131.000000,293.000000 130.997635,293.001801 
z"/>
<path fill="#020202" opacity="1.000000" stroke="none" 
	d="
M268.000000,8.999908 
	C267.879852,8.861348 267.759674,8.722878 267.639526,8.584409 
	C267.723877,8.632444 267.808258,8.680481 267.946289,8.864373 
	C268.000000,9.000229 268.000000,9.000000 268.000000,8.999908 
z"/>
<path fill="#070707" opacity="1.000000" stroke="none" 
	d="
M155.003693,190.364807 
	C153.668182,192.086670 152.145966,193.536652 150.241455,195.026581 
	C138.351547,184.857315 126.843910,174.648117 115.189789,164.132599 
	C114.929626,160.161285 116.390526,158.593277 120.456375,160.038879 
	C120.954285,160.130661 121.139656,160.175720 121.240891,160.293259 
	C128.203217,168.376938 135.876007,174.827393 148.087921,170.864288 
	C148.577118,178.511520 146.150543,186.474426 155.003693,190.364807 
z"/>
<path fill="#050505" opacity="1.000000" stroke="none" 
	d="
M322.828552,149.977539 
	C322.828522,141.206375 322.828522,132.932388 322.828522,124.322517 
	C331.517548,124.322517 339.819214,123.799400 348.021057,124.479752 
	C355.230347,125.077782 359.869995,132.467743 360.026917,141.701218 
	C360.247162,154.660004 354.102020,160.846329 341.040985,160.826172 
	C335.240082,160.817215 329.439148,160.824661 322.828552,160.824661 
	C322.828552,157.275528 322.828552,153.875137 322.828552,149.977539 
z"/>
<path fill="#E8E8E8" opacity="1.000000" stroke="none" 
	d="
M227.127777,273.395874 
	C227.315750,273.289673 227.622070,273.373932 227.981369,273.722839 
	C227.726303,273.942780 227.463562,273.809082 227.127777,273.395874 
z"/>
</svg>